<?xml version="1.0" standalone="no"?><!DOCTYPE svg PUBLIC "-//W3C//DTD SVG 1.1//EN" "http://www.w3.org/Graphics/SVG/1.1/DTD/svg11.dtd"><svg t="1744884870942" class="icon" viewBox="0 0 1024 1024" version="1.1" xmlns="http://www.w3.org/2000/svg" p-id="1563" xmlns:xlink="http://www.w3.org/1999/xlink" width="200" height="200"><path d="M674.08 155.42a194.47 194.47 0 0 1 194.5 194.5v324.16a194.47 194.47 0 0 1-194.5 194.5H349.92a194.47 194.47 0 0 1-194.5-194.5V349.92a194.47 194.47 0 0 1 194.5-194.5h324.16m0-21.61H349.92c-119.36 0-216.11 96.75-216.11 216.11v324.16c0 119.36 96.75 216.11 216.11 216.11h324.16c119.36 0 216.11-96.75 216.11-216.11V349.92c0-119.36-96.75-216.11-216.11-216.11z" fill="#198754" p-id="1564"></path><path d="M729.24 372.83a125.67 125.67 0 0 0-12.86-4.67 32 32 0 0 0-27.47 4l-31.57 20.56s15.22-22.28 16.12-23.74 2.19-3.76-1.62-4.62C604.78 363 556.59 379.57 530.59 390c-25.91 7.72-30.09 30.48-30.09 30.48l-9.06 39.75s-4-32.93-4.95-39.57c-1.56-6.44-6.82-1.81-6.82-1.81s-17.95 13.45-26.58 22.64-7.61 18-7.61 18l-1.11 55.46c-6.29-17.87-13-37.1-14.52-41-1.45-2.79-4.71-5.72-6.82-1.81-30.71 43.4-42.64 70.42-41.68 103.58-57.51 73-74.6 159-74.6 159 0.82 4.65 4.9 7.31 9-2.27 38.17-111.29 190-234.75 219.17-257.75-66.23 52.41-116.21 132.06-116.21 132.06 50.43-3.24 88.6-22.54 165-86.07 99.68-80.24 145.19-137 147.38-141.6s-1.85-6.26-1.85-6.26z m-191.37 99.6l2-1.51z" fill="#198754" p-id="1565"></path></svg>